<?xml version="1.0" encoding="utf-8"?>
<!-- Generator: Adobe Illustrator 16.0.0, SVG Export Plug-In . SVG Version: 6.00 Build 0)  -->
<!DOCTYPE svg PUBLIC "-//W3C//DTD SVG 1.1//EN" "http://www.w3.org/Graphics/SVG/1.1/DTD/svg11.dtd">
<svg version="1.1" id="Capa_1" xmlns="http://www.w3.org/2000/svg" xmlns:xlink="http://www.w3.org/1999/xlink" x="0px" y="0px"
	 width="150px" height="150px" viewBox="0 0 150 150" enable-background="new 0 0 150 150" xml:space="preserve">
<linearGradient id="SVGID_1_" gradientUnits="userSpaceOnUse" x1="130.6143" y1="-90.5947" x2="183.4643" y2="-37.7479" gradientTransform="matrix(3.125 0 0 3.125 -365.4648 313.3164)">
	<stop  offset="0" style="stop-color:#EFEEEE"/>
	<stop  offset="1" style="stop-color:#DEDEDD"/>
</linearGradient>
<polygon fill="url(#SVGID_1_)" points="25,0 25,150 112.5,150 150,112.5 150,0 "/>
<polygon fill="#ABABAB" points="112.5,112.5 112.5,150 150,112.5 "/>
<polygon fill="#DEDEDD" points="75,150 112.5,150 112.5,112.5 "/>
<path fill="#FF9900" d="M0,37.094v43.75h100v-43.75H0z"/>
<g>
	<path d="M15.993,66.584l-2.017,7.267H7.339l8.653-28.313h8.401l8.78,28.313h-6.889L24.1,66.584H15.993z M23.176,61.795
		l-1.764-6.007c-0.504-1.681-1.008-3.781-1.428-5.461h-0.084c-0.42,1.68-0.84,3.822-1.302,5.461l-1.68,6.007H23.176z"/>
	<path d="M43.083,47.596c0,1.765-1.344,3.193-3.445,3.193c-2.016,0-3.36-1.428-3.318-3.193c-0.042-1.848,1.302-3.234,3.36-3.234
		C41.738,44.362,43.041,45.748,43.083,47.596z M36.487,73.851V53.31h6.385v20.542H36.487z"/>
</g>
</svg>
